<svg xmlns="http://www.w3.org/2000/svg" xmlns:xlink="http://www.w3.org/1999/xlink" id="Layer_1" x="0" y="0" version="1.1" viewBox="0 0 42 42" xml:space="preserve" style="enable-background:new 0 0 42 42"><style type="text/css">.st0{fill:#fff}.st1{fill:#2c5967}</style><g><g><g><path d="M2.67,41.5c-1.19,0-2.17-0.97-2.17-2.17V2.67c0-1.19,0.97-2.17,2.17-2.17h36.67c1.19,0,2.17,0.97,2.17,2.17 v36.67c0,1.19-0.97,2.17-2.17,2.17H2.67z" class="st0"/><path d="M39.33,1C40.25,1,41,1.75,41,2.67v36.67c0,0.92-0.75,1.67-1.67,1.67H2.67C1.75,41,1,40.25,1,39.33V2.67 C1,1.75,1.75,1,2.67,1H39.33 M39.33,0H2.67C1.2,0,0,1.2,0,2.67v36.67C0,40.8,1.2,42,2.67,42h36.67C40.8,42,42,40.8,42,39.33V2.67 C42,1.2,40.8,0,39.33,0L39.33,0z" class="st0"/></g><g><path d="M39.33,1H2.67C1.75,1,1,1.75,1,2.67v36.67C1,40.25,1.75,41,2.67,41h36.67c0.92,0,1.67-0.75,1.67-1.67V2.67 C41,1.75,40.25,1,39.33,1z M39.52,39.33c0,0.1-0.08,0.19-0.19,0.19H2.67c-0.1,0-0.19-0.08-0.19-0.19V2.67 c0-0.1,0.08-0.19,0.19-0.19h36.67c0.1,0,0.19,0.08,0.19,0.19V39.33z" class="st1"/><path d="M5.44,36.37h31.11v-8.89H5.44V36.37z M6.93,28.96h28.15v5.93H6.93V28.96z" class="st1"/><circle cx="31.74" cy="31.93" r="1.11" class="st1"/><path d="M5.44,14.33h31.11V5.44H5.44V14.33z M6.93,6.93h28.15v5.93H6.93V6.93z" class="st1"/><circle cx="31.74" cy="9.89" r="1.11" class="st1"/><path d="M5.44,25.44h31.11v-8.89H5.44V25.44z M6.93,18.04h28.15v5.93H6.93V18.04z" class="st1"/><circle cx="31.74" cy="21" r="1.11" class="st1"/></g></g></g></svg>