<svg xmlns="http://www.w3.org/2000/svg" xmlns:xlink="http://www.w3.org/1999/xlink" id="Layer_1" x="0" y="0" version="1.1" viewBox="0 0 42 42" xml:space="preserve" style="enable-background:new 0 0 42 42"><style type="text/css">.st0{fill:#fff}.st1{fill:#2c5967}</style><g><g><path d="M2.67,41.5c-1.19,0-2.17-0.97-2.17-2.17V2.67c0-1.19,0.97-2.17,2.17-2.17h36.67c1.19,0,2.17,0.97,2.17,2.17 v36.67c0,1.19-0.97,2.17-2.17,2.17H2.67z" class="st0"/><path d="M39.33,1C40.25,1,41,1.75,41,2.67v36.67c0,0.92-0.75,1.67-1.67,1.67H2.67C1.75,41,1,40.25,1,39.33V2.67 C1,1.75,1.75,1,2.67,1H39.33 M39.33,0H2.67C1.2,0,0,1.2,0,2.67v36.67C0,40.8,1.2,42,2.67,42h36.67C40.8,42,42,40.8,42,39.33V2.67 C42,1.2,40.8,0,39.33,0L39.33,0z" class="st0"/></g><g><path d="M39.33,41H2.67C1.75,41,1,40.25,1,39.33V2.67C1,1.75,1.75,1,2.67,1h36.67C40.25,1,41,1.75,41,2.67v36.67 C41,40.25,40.25,41,39.33,41z M2.67,2.48c-0.1,0-0.19,0.08-0.19,0.19v36.67c0,0.1,0.08,0.19,0.19,0.19h36.67 c0.1,0,0.19-0.08,0.19-0.19V2.67c0-0.1-0.08-0.19-0.19-0.19H2.67z" class="st1"/></g><g><g><g><path d="M20.35,20.44h-8.89v-8.89h8.89V20.44z M12.94,18.96h5.93v-5.93h-5.93V18.96z" class="st1"/></g></g><g><g><path d="M30.35,20.44h-8.89v-8.89h8.89V20.44z M22.94,18.96h5.93v-5.93h-5.93V18.96z" class="st1"/></g></g><g><g><path d="M25.44,30.44h-8.89v-8.89h8.89V30.44z M18.04,28.96h5.93v-5.93h-5.93V28.96z" class="st1"/></g></g><g><g><path d="M35.44,30.44h-8.89v-8.89h8.89V30.44z M28.04,28.96h5.93v-5.93h-5.93V28.96z" class="st1"/></g></g><g><g><path d="M15.44,30.44H6.56v-8.89h8.89V30.44z M8.04,28.96h5.93v-5.93H8.04V28.96z" class="st1"/></g></g></g></g></svg>