<svg xmlns="http://www.w3.org/2000/svg" xmlns:xlink="http://www.w3.org/1999/xlink" width="24" height="24" version="1.1" viewBox="0 0 24 24"><title>icons / 24 / hamburger</title><desc>Created with Sketch.</desc><defs><path id="path-1" d="M21.5,6 L2.5,6 C2.224,6 2,5.776 2,5.5 C2,5.224 2.224,5 2.5,5 L21.5,5 C21.776,5 22,5.224 22,5.5 C22,5.776 21.776,6 21.5,6 Z M21.5,19 L2.5,19 C2.224,19 2,18.776 2,18.5 C2,18.224 2.224,18 2.5,18 L21.5,18 C21.776,18 22,18.224 22,18.5 C22,18.776 21.776,19 21.5,19 Z M21.5,12.5 L2.5,12.5 C2.224,12.5 2,12.276 2,12 C2,11.724 2.224,11.5 2.5,11.5 L21.5,11.5 C21.776,11.5 22,11.724 22,12 C22,12.276 21.776,12.5 21.5,12.5 Z"/></defs><g id="icons-/-24-/-hamburger" fill="none" fill-rule="evenodd" stroke="none" stroke-width="1"><mask id="mask-2" fill="#fff"><use xlink:href="#path-1"/></mask><use id="Combined-Shape" fill="#000" fill-rule="nonzero" xlink:href="#path-1"/><g id="_utils-/-colors-/-White" fill="#FFF" fill-rule="nonzero" mask="url(#mask-2)"><rect id="Rectangle" width="24" height="24" x="0" y="0"/></g></g></svg>