<svg xmlns="http://www.w3.org/2000/svg" xmlns:svg="http://www.w3.org/2000/svg" id="svg14" width="32" height="21" version="1.1" viewBox="0 0 32 21"><metadata id="metadata20"/><g id="g12" fill="#e55844"><path id="path10" d="M 9.9,20.1 C 4.4,20.1 0,15.7 0,10.2 0,4.7 4.4,0.3 9.9,0.3 h 11.6 c 5.5,0 9.9,4.4 9.9,9.9 0,5.5 -4.4,9.9 -9.9,9.9 H 9.9 m 11.3,-3.5 c 3.6,0 6.4,-2.9 6.4,-6.4 0,-3.6 -2.9,-6.4 -6.4,-6.4 h -11 c -3.6,0 -6.4,2.9 -6.4,6.4 0,3.5 2.9,6.4 6.4,6.4 h 11"/></g><text style="font-size:12.1527px;line-height:1.25;font-family:Promethean;-inkscape-font-specification:Promethean;stroke-width:1.13931" id="text24" x="4.562" y="12.933" transform="scale(0.97831467,1.022166)" xml:space="preserve"><tspan id="tspan22" x="4.562" y="12.933" style="stroke-width:1.13931">KIT</tspan></text></svg>