<svg xmlns="http://www.w3.org/2000/svg" xmlns:svg="http://www.w3.org/2000/svg" id="svg14" width="32" height="21" version="1.1" viewBox="0 0 32 21"><metadata id="metadata20"/><g id="g12" fill="#e55844"><path id="path10" d="M 9.9,20.1 C 4.4,20.1 0,15.7 0,10.2 0,4.7 4.4,0.3 9.9,0.3 h 11.6 c 5.5,0 9.9,4.4 9.9,9.9 0,5.5 -4.4,9.9 -9.9,9.9 H 9.9 m 11.3,-3.5 c 3.6,0 6.4,-2.9 6.4,-6.4 0,-3.6 -2.9,-6.4 -6.4,-6.4 h -11 c -3.6,0 -6.4,2.9 -6.4,6.4 0,3.5 2.9,6.4 6.4,6.4 h 11"/></g><g id="text24" aria-label="KIT" transform="scale(0.97831467,1.022166)" style="font-size:12.1527px;line-height:1.25;font-family:Promethean;-inkscape-font-specification:Promethean;stroke-width:1.13931"><path style="stroke-width:1.13931" id="path925" d="M 10.455691,6.8446779 8.2074413,9.4210504 H 5.8012066 V 6.8446779 H 4.7560744 V 12.933181 H 5.8133593 V 10.514793 H 8.219594 l 2.236097,2.418388 h 1.276033 L 8.9973669,9.9800746 11.731724,6.8446779 Z"/><path style="stroke-width:1.13931" id="path927" d="m 18.220127,7.9870317 h -1.822905 v 3.8767113 h 3.123244 l -1.300339,1.069438 h -5.821144 l 1.385408,-1.069438 h 1.543393 V 7.9870317 h -2.928801 l 1.397561,-1.1423538 h 5.736075 z"/><path style="stroke-width:1.13931" id="path929" d="m 26.00545,7.9870317 1.312492,-1.1423538 h -5.736075 l -1.39756,1.1423538 h 2.9288 v 4.9461493 h 1.069438 V 7.9870317 Z"/></g></svg>